<!--?xml version="1.0" encoding="utf-8"?-->
<!-- Generator: Adobe Illustrator 18.0.0, SVG Export Plug-In . SVG Version: 6.00 Build 0)  -->

<svg version="1.1" id="_x32_" xmlns="http://www.w3.org/2000/svg" xmlns:xlink="http://www.w3.org/1999/xlink" x="0px" y="0px" viewBox="0 0 512 512" style="width: 256px; height: 256px; opacity: 1;" xml:space="preserve">
<style type="text/css">
	.st0{fill:#4B4B4B;}
</style>
<g>
	<polygon class="st0" points="426.891,0.002 391.72,35.396 407.882,51.33 407.951,51.4 359.415,100.159 411.957,152.701 
		460.38,104.051 476.833,120.282 512,84.884 	" style="fill: rgb(255, 255, 255);"></polygon>
	<path class="st0" d="M294.868,71.512l-0.838-0.84l0,0l-0.115-0.113l-35.167,35.394l13.732,13.51L162.046,229.895l-88.01,88.115
		l18.85,81.384L0,511.775l0.226,0.223l112.241-92.852l81.673,18.776l87.967-87.967l110.211-110.433l13.954,13.728l34.941-35.164
		l0.115-0.117h-0.001l0.112-0.113L294.868,71.512z M175.692,258.737l43.773,43.546l17.211-17.433l-43.546-43.32l24.508-24.734
		l43.773,43.546l17.211-17.437l-43.273-43.042l-0.277-0.277l20.682-20.908l77.573,77.351L187.202,402.26l-62.9-14.435
		l-14.599-62.873l24.157-24.157l43.476,43.25l0.073,0.07l0,0l0.114,0.113l17.207-17.433l-43.546-43.324l24.455-24.68
		L175.692,258.737z" style="fill: rgb(255, 255, 255);"></path>
</g>
</svg>
